<?xml version="1.0" encoding="utf-8"?>
<!-- Generator: Adobe Illustrator 21.1.0, SVG Export Plug-In . SVG Version: 6.00 Build 0)  -->
<svg version="1.1"
	 id="svg2" inkscape:version="0.45pre1" sodipodi:modified="true" sodipodi:version="0.32" xmlns:cc="http://web.resource.org/cc/" xmlns:dc="http://purl.org/dc/elements/1.1/" xmlns:inkscape="http://www.inkscape.org/namespaces/inkscape" xmlns:rdf="http://www.w3.org/1999/02/22-rdf-syntax-ns#" xmlns:sodipodi="http://sodipodi.sourceforge.net/DTD/sodipodi-0.dtd" xmlns:svg="http://www.w3.org/2000/svg"
	 xmlns="http://www.w3.org/2000/svg" xmlns:xlink="http://www.w3.org/1999/xlink" x="0px" y="0px" viewBox="0 0 190 350"
	 style="enable-background:new 0 0 190 350;" xml:space="preserve">
<style type="text/css">
	.st0{fill:#FFFFFF;}
</style>
<sodipodi:namedview  bordercolor="#666666" borderopacity="1.0" height="350px" id="base" inkscape:current-layer="layer1" inkscape:cx="230.40355" inkscape:cy="215.07029" inkscape:document-units="px" inkscape:pageopacity="0.0" inkscape:pageshadow="2" inkscape:showpageshadow="false" inkscape:window-height="576" inkscape:window-width="785" inkscape:window-x="110" inkscape:window-y="110" inkscape:zoom="0.49497475" pagecolor="#ffffff" width="320px">
	</sodipodi:namedview>
<g id="layer1" transform="translate(-205.55528,-358.43482)" inkscape:groupmode="layer" inkscape:label="Livello 1">
	<path id="text2160" class="st0" d="M298.9,545.2c3-7.2,3-14.5,0-21.7l-63.2-128.3c2.4-6,7.5-9.9,15.4-11.7
		c17.5,22.9,34.9,45.6,52.4,68.2c17.5,22.6,35.8,45.3,55.1,68.2c7.8,9.6,7.8,19,0,28c-19.3,22.9-37.7,45.5-55.1,67.8
		c-17.5,22.3-34.9,44.9-52.4,67.8c-7.8-1.2-13-5.1-15.4-11.7L298.9,545.2z"/>
</g>
</svg>
